<svg width="50" height="50" viewBox="0 0 50 50" fill="none" xmlns="http://www.w3.org/2000/svg">
<rect width="50" height="50" rx="12" fill="#ECE9FF"/>
<g clip-path="url(#clip0_3606_10162)">
<path d="M34.375 12.8125H18.4375C17.4439 12.8156 16.4919 13.2117 15.7893 13.9143C15.0867 14.6169 14.6906 15.5689 14.6875 16.5625V36.25C14.6875 36.4986 14.7863 36.7371 14.9621 36.9129C15.1379 37.0887 15.3764 37.1875 15.625 37.1875H32.5C32.7486 37.1875 32.9871 37.0887 33.1629 36.9129C33.3387 36.7371 33.4375 36.4986 33.4375 36.25C33.4375 36.0014 33.3387 35.7629 33.1629 35.5871C32.9871 35.4113 32.7486 35.3125 32.5 35.3125H16.5625C16.5625 34.8152 16.76 34.3383 17.1117 33.9867C17.4633 33.635 17.9402 33.4375 18.4375 33.4375H34.375C34.6236 33.4375 34.8621 33.3387 35.0379 33.1629C35.2137 32.9871 35.3125 32.7486 35.3125 32.5V13.75C35.3125 13.5014 35.2137 13.2629 35.0379 13.0871C34.8621 12.9113 34.6236 12.8125 34.375 12.8125ZM31.5625 24.0625L28.5625 21.8125C28.4822 21.7498 28.3832 21.7157 28.2812 21.7157C28.1793 21.7157 28.0803 21.7498 28 21.8125L25 24.0625V14.6875H31.5625V24.0625Z" fill="#003399"/>
</g>
<defs>
<clipPath id="clip0_3606_10162">
<rect width="30" height="30" fill="white" transform="translate(10 10)"/>
</clipPath>
</defs>
</svg>
