<svg width="111" height="111" viewBox="0 0 111 111" fill="none" xmlns="http://www.w3.org/2000/svg">
  <defs>
    <filter id="shadow" x="-20%" y="-20%" width="140%" height="140%">
      <feDropShadow dx="0" dy="4" stdDeviation="3" flood-color="#000" flood-opacity="0.18"/>
    </filter>
  </defs>
  <circle cx="55.5" cy="55.5" r="55.5" fill="#003399" filter="url(#shadow)"/>
  <path d="M49.95 33.3V64.3023L35.8752 50.2275C35.3632 49.6974 34.7508 49.2746 34.0737 48.9837C33.3966 48.6929 32.6683 48.5398 31.9314 48.5334C31.1945 48.527 30.4636 48.6674 29.7816 48.9464C29.0995 49.2255 28.4798 49.6376 27.9587 50.1587C27.4376 50.6798 27.0255 51.2995 26.7464 51.9816C26.4674 52.6636 26.327 53.3945 26.3334 54.1314C26.3398 54.8683 26.4929 55.5966 26.7837 56.2737C27.0746 56.9508 27.4974 57.5632 28.0275 58.0752L51.5762 81.6238C52.0904 82.141 52.7018 82.5515 53.3752 82.8315C54.0486 83.1116 54.7707 83.2557 55.5 83.2557C56.2293 83.2557 56.9514 83.1116 57.6248 82.8315C58.2982 82.5515 58.9096 82.141 59.4239 81.6238L82.9725 58.0752C83.5026 57.5632 83.9254 56.9508 84.2163 56.2737C84.5071 55.5966 84.6602 54.8683 84.6666 54.1314C84.673 53.3945 84.5326 52.6636 84.2536 51.9816C83.9745 51.2995 83.5624 50.6798 83.0413 50.1587C82.5202 49.6376 81.9005 49.2255 81.2184 48.9464C80.5364 48.6674 79.8056 48.527 79.0686 48.5334C78.3317 48.5398 77.6034 48.6929 76.9263 48.9837C76.2492 49.2746 75.6368 49.6974 75.1248 50.2275L61.05 64.3023V33.3C61.05 31.828 60.4653 30.4164 59.4244 29.3756C58.3836 28.3347 56.972 27.75 55.5 27.75C54.028 27.75 52.6164 28.3347 51.5756 29.3756C50.5347 30.4164 49.95 31.828 49.95 33.3Z" fill="#fff"/>
</svg>
