<svg width="49" height="48" viewBox="0 0 49 48" fill="none" xmlns="http://www.w3.org/2000/svg">
<ellipse cx="24.6584" cy="24" rx="23.9392" ry="23.5" fill="#003399"/>
<path d="M34.675 31.7949C35.0442 32.2051 35.0442 32.8203 34.634 33.1895L33.4856 34.3379C33.1165 34.748 32.5012 34.748 32.0911 34.3379L28.0305 30.2773C27.8254 30.0723 27.7434 29.8262 27.7434 29.5801V28.8828C26.2668 30.0312 24.4622 30.6875 22.4934 30.6875C17.7766 30.6875 13.9622 26.873 13.9622 22.1562C13.9622 17.4805 17.7766 13.625 22.4934 13.625C27.1692 13.625 31.0247 17.4805 31.0247 22.1562C31.0247 24.166 30.3274 25.9707 29.22 27.4062H29.8762C30.1223 27.4062 30.3684 27.5293 30.5735 27.6934L34.675 31.7949ZM22.4934 27.4062C25.3645 27.4062 27.7434 25.0684 27.7434 22.1562C27.7434 19.2852 25.3645 16.9062 22.4934 16.9062C19.5813 16.9062 17.2434 19.2852 17.2434 22.1562C17.2434 25.0684 19.5813 27.4062 22.4934 27.4062Z" fill="white"/>
</svg>
