<svg width="24" height="24" viewBox="0 0 24 24" fill="none" xmlns="http://www.w3.org/2000/svg">
<g clip-path="url(#clip0_3614_2633)">
<path d="M3 19.5V6C3 5.80109 3.07902 5.61032 3.21967 5.46967C3.36032 5.32902 3.55109 5.25 3.75 5.25H8.74688C8.90904 5.25067 9.06674 5.30323 9.19687 5.4L11.8031 7.35C11.9333 7.44677 12.091 7.49933 12.2531 7.5H18.75C18.9489 7.5 19.1397 7.57902 19.2803 7.71967C19.421 7.86032 19.5 8.05109 19.5 8.25V10.5" stroke="black" stroke-width="1.5" stroke-linecap="round" stroke-linejoin="round"/>
<path d="M3 19.5L5.80313 12.8344C5.86151 12.6986 5.95825 12.5828 6.08148 12.5012C6.20471 12.4196 6.34908 12.3758 6.49688 12.375H11.025C11.1711 12.3734 11.314 12.3312 11.4375 12.2531L13.3125 10.9969C13.436 10.9188 13.5789 10.8766 13.725 10.875H21.4406C21.5603 10.8745 21.6784 10.9026 21.785 10.9571C21.8916 11.0115 21.9836 11.0907 22.0534 11.188C22.1231 11.2853 22.1686 11.3978 22.1859 11.5163C22.2033 11.6347 22.192 11.7556 22.1531 11.8688L19.5 19.5H3Z" stroke="black" stroke-width="1.5" stroke-linecap="round" stroke-linejoin="round"/>
</g>
<defs>
<clipPath id="clip0_3614_2633">
<rect width="24" height="24" fill="white"/>
</clipPath>
</defs>
</svg>
